<svg width="13" height="13" viewBox="0 0 13 13" fill="none" xmlns="http://www.w3.org/2000/svg">
<path d="M10.6842 1.03291H9.65125V0H8.9605V1.03291H3.44734V0H2.75658V1.03291H1.72367C0.774683 1.03291 0 1.80759 0 2.75658V11.0263C0 11.9753 0.774683 12.75 1.72367 12.75H10.6842C11.6332 12.75 12.4078 11.9753 12.4078 11.0263V4.48025V3.78949V2.75658C12.4078 1.80759 11.6332 1.03291 10.6842 1.03291ZM11.7171 11.0263C11.7171 11.5944 11.2523 12.0592 10.6842 12.0592H1.72367C1.15557 12.0592 0.690759 11.5944 0.690759 11.0263V4.48025H11.7171V11.0263ZM11.7171 3.78949H0.690759V2.75658C0.690759 2.18848 1.15557 1.72367 1.72367 1.72367H2.75658V2.41443H3.44734V1.72367H8.9605V2.41443H9.65125V1.72367H10.6842C11.2523 1.72367 11.7171 2.18848 11.7171 2.75658V3.78949Z" fill="#4FB9BB"/>
</svg>
