<svg width="13" height="13" viewBox="0 0 13 13" fill="none" xmlns="http://www.w3.org/2000/svg">
<path d="M10.5928 4.12C10.5728 4.01 10.4628 3.93 10.3328 3.93H9.12277V3.11C9.12277 1.94 8.01277 1 6.65277 1C5.29277 1 4.18277 1.95 4.18277 3.11V3.93H2.97277C2.84277 3.93 2.73277 4.01 2.71277 4.12L1.00277 12.42C0.982774 12.54 1.07277 12.66 1.21277 12.68C1.23277 12.68 1.24277 12.68 1.26277 12.68H12.0428C12.1928 12.68 12.3028 12.58 12.3128 12.46C12.3128 12.45 12.3128 12.43 12.3128 12.42L10.5928 4.12ZM4.70277 3.11C4.70277 2.19 5.57277 1.45 6.64277 1.45C7.71277 1.45 8.58277 2.19 8.58277 3.11V3.93H4.70277V3.11ZM1.57277 12.23L3.19277 4.38H4.18277V5.41C4.18277 5.53 4.30277 5.63 4.44277 5.63C4.58277 5.63 4.70277 5.53 4.70277 5.41V4.38H8.59277V5.41C8.59277 5.53 8.71277 5.63 8.85277 5.63C9.00277 5.63 9.11277 5.53 9.11277 5.41V4.38H10.1028L11.7228 12.23H1.57277Z" fill="#4FB9BB" stroke="#4FB9BB" stroke-width="0.5" stroke-miterlimit="10"/>
</svg>
